<svg xmlns="http://www.w3.org/2000/svg" xmlns:xlink="http://www.w3.org/1999/xlink">
<defs>
<symbol id="vector-3" viewBox="0 0 28 32">
<path d="M26.478 6.843l-10.667-6.269c-0.476-0.286-1.051-0.455-1.666-0.455s-1.189 0.169-1.68 0.464l0.015-0.008-10.666 6.269c-1.001 0.591-1.625 1.674-1.625 2.823v12.652c0.004 1.198 0.649 2.244 1.609 2.814l0.015 0.008 10.666 6.269c0.476 0.286 1.051 0.455 1.666 0.455s1.189-0.169 1.68-0.464l-0.015 0.008 10.667-6.269c1.001-0.591 1.625-1.674 1.625-2.823v-12.652c0-1.148-0.624-2.231-1.625-2.822zM22.999 21.974l-8.205 4.923c-0.197 0.114-0.41 0.18-0.64 0.18s-0.443-0.066-0.64-0.181l-8.205-4.923c-0.591-0.345-0.772-1.099-0.427-1.69s1.1-0.772 1.69-0.427l7.565 4.546 5.809-3.495-3.052-1.838-1.066 1.066c-0.246 0.246-0.558 0.361-0.87 0.361-0.001 0-0.003 0-0.005 0-0.338 0-0.645-0.138-0.865-0.361l-0-0c-0.221-0.223-0.357-0.531-0.357-0.87s0.136-0.646 0.357-0.87l-0 0 0.624-0.623-2.954-1.772-0.854 0.854c-0.246 0.246-0.558 0.361-0.87 0.361-0.002 0-0.003 0-0.005 0-0.338 0-0.644-0.138-0.865-0.361l-0-0c-0.221-0.223-0.357-0.531-0.357-0.87s0.136-0.646 0.357-0.87l0.427-0.427-4.283-2.576c-0.356-0.217-0.591-0.603-0.591-1.044 0-0.002 0-0.005 0-0.007v0c0-0.426 0.23-0.837 0.591-1.050l8.205-4.923c0.394-0.23 0.886-0.23 1.263 0l8.206 4.923c0.591 0.345 0.771 1.099 0.426 1.69-0.222 0.36-0.614 0.597-1.062 0.597-0.232 0-0.449-0.063-0.634-0.174l0.006 0.003-7.565-4.545-5.809 3.495 3.052 1.838 1.066-1.066c0.223-0.221 0.531-0.357 0.87-0.357s0.646 0.136 0.87 0.357l-0-0c0.221 0.223 0.357 0.531 0.357 0.87s-0.136 0.646-0.357 0.87l-0.623 0.623 2.954 1.772 0.853-0.853c0.223-0.221 0.531-0.357 0.87-0.357s0.646 0.136 0.87 0.357l-0-0c0.221 0.223 0.357 0.531 0.357 0.87s-0.136 0.646-0.357 0.87l0-0-0.426 0.427 4.283 2.576c0.377 0.23 0.591 0.624 0.591 1.050s-0.214 0.837-0.575 1.050z"></path>
</symbol>
<symbol id="vector-2" viewBox="0 0 32 32">
<path d="M16 0.197c-8.723 0-15.803 7.080-15.803 15.803s7.080 15.802 15.803 15.802c8.723 0 15.802-7.079 15.802-15.802s-7.079-15.803-15.802-15.803zM23.111 19.556h-4.82l3.145 4.456c0.379 0.537 0.253 1.28-0.284 1.643-0.205 0.142-0.443 0.221-0.68 0.221-0.004 0-0.009 0-0.014 0-0.394 0-0.741-0.199-0.947-0.502l-0.003-0.004-3.635-5.151-3.634 5.151c-0.216 0.305-0.567 0.503-0.964 0.505h-0c-0.237 0-0.474-0.063-0.679-0.221-0.537-0.379-0.664-1.122-0.284-1.643l3.144-4.456h-4.535c-0.648 0-1.185-0.537-1.185-1.185s0.537-1.185 1.185-1.185h14.222c0.648 0 1.185 0.537 1.185 1.185s-0.569 1.185-1.217 1.185zM23.111 14.815h-14.222c-0.648 0-1.185-0.537-1.185-1.185s0.537-1.185 1.185-1.185h4.535l-3.144-4.456c-0.379-0.537-0.253-1.28 0.284-1.644 0.537-0.379 1.28-0.252 1.643 0.284l3.634 5.152 3.635-5.151c0.379-0.537 1.122-0.664 1.643-0.284 0.537 0.379 0.664 1.122 0.284 1.643l-3.145 4.456h4.82c0.648 0 1.185 0.537 1.185 1.185s-0.506 1.185-1.154 1.185z"></path>
</symbol>
<symbol id="vector-1" viewBox="0 0 32 32">
<path d="M20.772 0.561c-1.434-0.234-3.088-0.367-4.772-0.367s-3.338 0.134-4.95 0.391l0.178-0.023c-1.295 0.206-2.244 1.312-2.244 2.607v5.816h-5.816c-1.295 0-2.402 0.948-2.607 2.244-0.234 1.434-0.367 3.088-0.367 4.772s0.134 3.338 0.391 4.95l-0.023-0.178c0.206 1.296 1.312 2.244 2.607 2.244h2.655c0.002 0 0.005 0 0.008 0 0.432 0 0.782-0.35 0.782-0.782 0-0.003-0-0.006-0-0.009v0-2.718c0-3.24 2.639-5.879 5.879-5.879h7.016c0.632 0 1.138-0.506 1.138-1.138v-5.089c-0-0.002-0-0.005-0-0.008 0-0.432 0.35-0.782 0.782-0.782 0.003 0 0.005 0 0.008 0h0.79c0.002 0 0.005 0 0.008 0 0.432 0 0.782-0.35 0.782-0.782 0-0.003-0-0.006-0-0.009v0-2.655c0-1.295-0.948-2.402-2.244-2.607zM13.361 5.855c-0.648 0-1.264-0.616-1.264-1.265 0-0.664 0.616-1.28 1.264-1.28 0.316 0 0.664 0.142 0.885 0.364 0.237 0.221 0.395 0.584 0.395 0.916 0 0.648-0.616 1.265-1.28 1.265z"></path>
<path d="M31.439 11.228c-0.206-1.296-1.311-2.244-2.607-2.244h-5.025c-0.002-0-0.005-0-0.008-0-0.432 0-0.782 0.35-0.782 0.782 0 0.003 0 0.005 0 0.008v-0 2.718c0 1.928-1.564 3.508-3.508 3.508h-7.016c-1.944 0-3.508 1.564-3.508 3.508v9.323c0 1.296 0.948 2.402 2.244 2.607 1.434 0.234 3.088 0.367 4.772 0.367s3.338-0.134 4.95-0.391l-0.178 0.023c1.296-0.206 2.244-1.311 2.244-2.607v-5.815h5.815c1.296 0 2.402-0.948 2.607-2.244 0.234-1.434 0.367-3.088 0.367-4.772s-0.134-3.338-0.391-4.95l0.023 0.178zM18.639 28.689c-0.648 0-1.28-0.616-1.28-1.28s0.616-1.28 1.28-1.28c0.3 0 0.664 0.142 0.885 0.348 0.237 0.221 0.395 0.6 0.395 0.916-0.016 0.68-0.632 1.296-1.28 1.296z"></path>
</symbol>
</defs>
</svg>
