<svg aria-hidden="true" style="position: absolute; width: 0; height: 0; overflow: hidden;" version="1.1" xmlns="http://www.w3.org/2000/svg" xmlns:xlink="http://www.w3.org/1999/xlink">
<defs>
<symbol id="youtube" viewBox="0 0 37 32">
<path  d="M32.574 0.955c1.574 0.526 2.813 2.075 3.233 4.042 0.764 3.565 0.764 11.003 0.764 11.003s0 7.438-0.764 11.003c-0.421 1.967-1.66 3.516-3.233 4.042-2.852 0.955-14.288 0.955-14.288 0.955s-11.436 0-14.288-0.955c-1.574-0.526-2.813-2.075-3.233-4.042-0.764-3.565-0.764-11.003-0.764-11.003s0-7.438 0.764-11.003c0.421-1.967 1.66-3.516 3.233-4.042 2.852-0.955 14.288-0.955 14.288-0.955s11.436 0 14.288 0.955zM14.857 9.739v13.913l9.143-6.956-9.143-6.957z"></path>
</symbol>
<symbol id="twitter" viewBox="0 0 37 32">
<path d="M17.758 8.512l0.079 1.384-1.321-0.169c-4.809-0.65-9.011-2.853-12.578-6.553l-1.744-1.836-0.449 1.356c-0.951 3.022-0.344 6.214 1.638 8.361 1.057 1.186 0.819 1.356-1.004 0.65-0.634-0.226-1.189-0.395-1.242-0.311-0.185 0.198 0.449 2.768 0.951 3.785 0.687 1.412 2.088 2.796 3.62 3.616l1.295 0.65-1.533 0.028c-1.48 0-1.533 0.028-1.374 0.621 0.528 1.836 2.616 3.785 4.941 4.633l1.638 0.593-1.427 0.904c-2.114 1.299-4.598 2.034-7.082 2.090-1.189 0.028-2.167 0.141-2.167 0.226 0 0.282 3.224 1.864 5.1 2.486 5.629 1.836 12.314 1.045 17.335-2.090 3.567-2.232 7.135-6.666 8.8-10.96 0.898-2.288 1.797-6.468 1.797-8.474 0-1.299 0.079-1.469 1.559-3.022 0.872-0.904 1.691-1.893 1.85-2.175 0.264-0.537 0.238-0.537-1.11-0.056-2.246 0.847-2.563 0.734-1.453-0.537 0.819-0.904 1.797-2.542 1.797-3.022 0-0.085-0.396 0.056-0.846 0.311-0.476 0.282-1.533 0.706-2.325 0.96l-1.427 0.48-1.295-0.932c-0.713-0.508-1.718-1.073-2.246-1.243-1.348-0.395-3.409-0.339-4.624 0.113-3.303 1.271-5.391 4.548-5.153 8.135z"></path>
</symbol>
<symbol id="dribble" viewBox="0 0 34 32">
<path d="M32.044 16c0 1.084-0.11 2.166-0.327 3.22-0.211 1.030-0.524 2.041-0.934 3.007-0.401 0.949-0.897 1.864-1.478 2.717-0.572 0.848-1.231 1.643-1.954 2.368-0.725 0.722-1.523 1.379-2.371 1.953-0.856 0.577-1.772 1.073-2.722 1.475-0.968 0.408-1.981 0.72-3.010 0.931-1.056 0.217-2.142 0.328-3.227 0.328s-2.172-0.111-3.226-0.328c-1.030-0.211-2.044-0.523-3.011-0.931-0.95-0.402-1.867-0.898-2.723-1.475-0.847-0.574-1.645-1.231-2.369-1.953-0.724-0.725-1.383-1.52-1.956-2.368-0.577-0.853-1.075-1.768-1.477-2.717-0.41-0.966-0.724-1.977-0.936-3.007-0.214-1.055-0.324-2.137-0.324-3.22s0.11-2.169 0.324-3.221c0.212-1.030 0.526-2.042 0.936-3.007 0.402-0.95 0.9-1.866 1.477-2.719 0.573-0.848 1.232-1.642 1.956-2.368 0.724-0.722 1.522-1.377 2.369-1.951 0.856-0.579 1.773-1.075 2.723-1.478 0.967-0.409 1.98-0.722 3.011-0.931 1.055-0.216 2.141-0.325 3.226-0.325s2.171 0.109 3.227 0.325c1.029 0.209 2.042 0.523 3.010 0.931 0.95 0.403 1.866 0.899 2.722 1.478 0.847 0.573 1.645 1.229 2.371 1.951 0.724 0.726 1.382 1.52 1.954 2.368 0.58 0.853 1.077 1.769 1.478 2.719 0.41 0.965 0.723 1.977 0.934 3.007 0.217 1.052 0.327 2.137 0.327 3.221zM10.183 3.641c-3.816 1.799-6.664 5.31-7.552 9.541 0.361 0.003 6.063 0.075 12.632-1.668-2.368-4.202-4.898-7.63-5.081-7.873zM16.398 13.619c-7.045 2.106-13.806 1.955-14.048 1.945-0.004 0.147-0.011 0.289-0.011 0.436 0 3.51 1.326 6.71 3.506 9.13-0.005-0.007 3.74-6.641 11.124-9.025 0.178-0.059 0.36-0.113 0.54-0.164-0.343-0.777-0.718-1.555-1.11-2.322zM25.058 5.745c-2.409-2.121-5.572-3.408-9.037-3.408-1.112 0-2.191 0.134-3.224 0.383 0.205 0.275 2.775 3.68 5.115 7.97 5.163-1.933 7.112-4.895 7.146-4.945zM18.441 18.205c-0.030 0.010-0.061 0.019-0.091 0.030-8.073 2.81-10.71 8.474-10.738 8.536 2.323 1.804 5.236 2.892 8.41 2.892 1.895 0 3.7-0.385 5.342-1.083-0.203-1.194-0.998-5.378-2.923-10.375zM23.668 27.331c3.072-2.070 5.254-5.358 5.863-9.166-0.282-0.091-4.11-1.301-8.526-0.594 1.795 4.925 2.524 8.936 2.663 9.759zM18.966 12.727c0.318 0.652 0.625 1.315 0.909 1.981 0.101 0.239 0.199 0.473 0.296 0.708 4.701-0.591 9.331 0.403 9.529 0.444-0.031-3.239-1.192-6.212-3.111-8.539-0.026 0.037-2.22 3.203-7.623 5.406z"></path>
</symbol>
<symbol id="instagram" viewBox="0 0 32 32">
<path d="M16.002 0c-4.345 0-4.891 0.019-6.597 0.097-1.703 0.078-2.866 0.348-3.883 0.743-1.052 0.409-1.945 0.955-2.834 1.845s-1.437 1.782-1.847 2.834c-0.397 1.018-0.667 2.181-0.743 3.883-0.076 1.707-0.096 2.252-0.096 6.598s0.019 4.889 0.097 6.596c0.078 1.703 0.348 2.866 0.743 3.883 0.409 1.052 0.956 1.945 1.845 2.834s1.782 1.438 2.833 1.847c1.018 0.396 2.181 0.665 3.884 0.743 1.707 0.078 2.252 0.097 6.597 0.097s4.889-0.019 6.596-0.097c1.703-0.078 2.867-0.348 3.885-0.743 1.052-0.409 1.943-0.957 2.832-1.847s1.437-1.782 1.847-2.834c0.393-1.018 0.663-2.181 0.743-3.883 0.077-1.707 0.097-2.251 0.097-6.596s-0.020-4.891-0.097-6.597c-0.080-1.703-0.35-2.866-0.743-3.883-0.41-1.052-0.957-1.945-1.847-2.834s-1.78-1.437-2.833-1.845c-1.020-0.396-2.183-0.665-3.887-0.743-1.707-0.078-2.25-0.097-6.597-0.097h0.005zM14.566 2.883c0.426-0.001 0.901 0 1.435 0 4.272 0 4.778 0.015 6.465 0.092 1.56 0.071 2.407 0.332 2.971 0.551 0.747 0.29 1.279 0.637 1.839 1.197s0.907 1.093 1.197 1.84c0.219 0.563 0.48 1.41 0.551 2.97 0.077 1.687 0.093 2.193 0.093 6.463s-0.017 4.777-0.093 6.463c-0.071 1.56-0.332 2.407-0.551 2.97-0.29 0.747-0.637 1.278-1.197 1.838s-1.092 0.907-1.839 1.197c-0.563 0.22-1.411 0.48-2.971 0.551-1.687 0.077-2.193 0.093-6.465 0.093s-4.779-0.017-6.465-0.093c-1.56-0.072-2.407-0.333-2.971-0.552-0.747-0.29-1.28-0.637-1.84-1.197s-0.907-1.092-1.197-1.839c-0.219-0.563-0.48-1.41-0.551-2.97-0.077-1.687-0.092-2.193-0.092-6.466s0.015-4.777 0.092-6.463c0.071-1.56 0.332-2.407 0.551-2.971 0.29-0.747 0.637-1.28 1.197-1.84s1.093-0.907 1.84-1.197c0.564-0.22 1.411-0.48 2.971-0.552 1.476-0.067 2.048-0.087 5.030-0.090v0.004zM24.542 5.54c-1.060 0-1.92 0.859-1.92 1.919s0.86 1.92 1.92 1.92 1.92-0.86 1.92-1.92c0-1.060-0.86-1.919-1.92-1.919zM16.002 7.783c-4.538 0-8.217 3.679-8.217 8.217s3.679 8.215 8.217 8.215 8.215-3.677 8.215-8.215c0-4.538-3.678-8.217-8.215-8.217zM16.001 10.667c2.945 0 5.333 2.388 5.333 5.333s-2.388 5.333-5.333 5.333c-2.946 0-5.333-2.388-5.333-5.333s2.388-5.333 5.333-5.333z"></path>
</symbol>
</defs>
</svg>
